<svg aria-hidden="true" style="position:absolute;width:0;height:0;overflow:hidden" xmlns="http://www.w3.org/2000/svg"><defs><symbol id="linkedin" viewBox="0 0 32 32"><path d="M23.269 23.273h.004v-5.335c0-2.609-.562-4.62-3.613-4.62-1.466 0-2.451.804-2.852 1.567h-.042v-1.324h-2.893v9.711h3.012v-4.808c0-1.266.24-2.491 1.808-2.491 1.545 0 1.567 1.445 1.567 2.572v4.728h3.009zM8.967 13.562h3.016v9.711H8.967v-9.711zm1.507-4.835c-.965 0-1.747.782-1.747 1.747 0 .964.783 1.763 1.747 1.763s1.746-.799 1.746-1.763c0-.964-.782-1.746-1.746-1.747z"/></symbol><symbol id="facebook" viewBox="0 0 32 32"><path d="M18.422 11.142h1.329V8.829c-.56-.065-1.21-.102-1.868-.102h-.071.004c-1.915 0-3.226 1.204-3.226 3.418v2.036h-2.113v2.585h2.113v6.505h2.59v-6.505h2.028l.321-2.585H17.18v-1.782c0-.747.201-1.258 1.243-1.258z"/></symbol><symbol id="twitter" viewBox="0 0 32 32"><path d="M23.273 11.49c-.5.224-1.08.39-1.688.467l-.031.003a2.98 2.98 0 0 0 1.306-1.627l.006-.021a5.851 5.851 0 0 1-1.853.715l-.038.006a2.981 2.981 0 0 0-5.158 2.036v.003c0 .236.02.464.07.68a8.443 8.443 0 0 1-6.147-3.119 2.984 2.984 0 0 0 .917 3.986 2.937 2.937 0 0 1-1.362-.375l.015.008v.033a2.995 2.995 0 0 0 2.37 2.927l.02.003a2.906 2.906 0 0 1-.756.098h-.028.001-.047c-.183 0-.362-.019-.534-.054l.017.003a3.012 3.012 0 0 0 2.786 2.078 5.948 5.948 0 0 1-3.69 1.271h-.047c-.238 0-.472-.015-.701-.044l.027.003a8.317 8.317 0 0 0 4.547 1.338h.029-.002c5.487 0 8.487-4.545 8.487-8.486 0-.131-.004-.259-.011-.385a5.994 5.994 0 0 0 1.481-1.526l.014-.021z"/></symbol><symbol id="instagram" viewBox="0 0 32 32"><path d="M23.258 13.004c-.033-.773-.159-1.304-.338-1.764a3.58 3.58 0 0 0-.84-1.29l-.001-.001a3.583 3.583 0 0 0-1.263-.83l-.024-.008c-.463-.179-.991-.304-1.764-.337-.778-.037-1.025-.046-3.001-.046s-2.222.009-2.998.043c-.773.033-1.304.159-1.764.338a3.58 3.58 0 0 0-1.29.84l-.001.001c-.36.354-.645.784-.83 1.263l-.008.024c-.18.463-.304.991-.338 1.764-.037.778-.046 1.025-.046 3.001s.009 2.222.043 2.998c.034.773.159 1.304.338 1.764.194.505.48.935.84 1.29h.001c.364.369.804.656 1.287.838.463.18.992.305 1.764.338.776.034 1.023.043 2.998.043s2.222-.009 2.998-.043c.773-.033 1.304-.159 1.764-.337a3.741 3.741 0 0 0 2.12-2.104l.009-.025c.179-.463.304-.992.338-1.764.034-.776.042-1.023.042-2.998s-.003-2.222-.036-2.998zm-1.309 5.939c-.032.711-.151 1.094-.251 1.349a2.426 2.426 0 0 1-1.364 1.376l-.016.006c-.256.099-.642.218-1.35.249-.767.034-.997.043-2.938.043s-2.174-.009-2.938-.043c-.711-.031-1.094-.151-1.35-.25a2.237 2.237 0 0 1-.834-.542l-.001-.001a2.268 2.268 0 0 1-.538-.819l-.005-.016c-.099-.256-.218-.642-.249-1.35-.034-.767-.043-.998-.043-2.938s.009-2.175.043-2.938c.031-.711.151-1.094.249-1.35.122-.328.308-.608.545-.835l.001-.001c.229-.235.509-.42.821-.537l.016-.005c.255-.099.641-.218 1.349-.25.767-.033.998-.042 2.938-.042 1.943 0 2.174.008 2.938.042.71.031 1.094.151 1.35.25.315.116.602.301.835.543.241.236.426.52.543.836.099.255.218.641.249 1.349.034.767.043.997.043 2.938s-.009 2.167-.043 2.935z"/><path d="M16.027 12.265h-.001a3.737 3.737 0 1 0 3.737 3.737v-.001a3.737 3.737 0 0 0-3.737-3.737zm0 6.16a2.424 2.424 0 1 1 0-4.848 2.424 2.424 0 1 1 0 4.848zm4.757-6.308a.873.873 0 0 1-1.746 0 .873.873 0 0 1 1.746 0z"/></symbol><symbol id="LogoBS" viewBox="0 0 38 32"><path d="m21.774 9.64-.717-.571a.528.528 0 0 0-.765.079l-.001.001-9.915 11.897.153.177 2.455-2.366a.381.381 0 0 1-.19-.177l-.001-.002a.41.41 0 0 1-.037-.268v.003a.401.401 0 0 1 .134-.229.363.363 0 0 1 .237-.087h.006c.08 0 .157.027.221.076s.11.117.134.196l.001.003 3.238-3.137a.273.273 0 0 1 .351 0l.164.126a.264.264 0 0 0 .365-.046v-.001l4.233-4.96a.49.49 0 0 0 .063-.567l.001.003a.473.473 0 0 0-.129-.148l-.001-.001z"/><path d="M26.433 12.989a21.493 21.493 0 0 1-7.022 3.477l-.153.037c-2.298.638-4.968 1.071-7.716 1.208l-.088.003c.053.406.149.805.285 1.189 1.487 1.406 12.687-.994 14.875-3.771.465-.577-.181-2.143-.181-2.143zm-13.3 5.868a.36.36 0 0 1-.207-.066l.001.001a.39.39 0 0 1-.136-.172l-.001-.003a.404.404 0 0 1 .08-.423.36.36 0 0 1 .408-.083l-.002-.001a.395.395 0 0 1 .229.358v.004a.396.396 0 0 1-.108.272.366.366 0 0 1-.263.112h-.001zM2.551 12.166l.088-.394 1.422.337c.117.226.19.475.213.731a2.54 2.54 0 0 1-.049.811c-.074.384-.24.72-.473.998l.003-.003c-.219.26-.504.457-.829.568l-.013.004a1.93 1.93 0 0 1-1.047.038l.013.003a1.896 1.896 0 0 1-.913-.503 1.904 1.904 0 0 1-.517-.884l-.003-.013a2.271 2.271 0 0 1 .003-1.158l-.004.016c.059-.28.165-.547.312-.789.14-.22.327-.402.547-.531l.197.314c-.189.121-.35.282-.474.473a1.66 1.66 0 0 0-.246.625l-.001.01a1.87 1.87 0 0 0 .019.91l-.003-.013c.074.278.219.529.421.726.207.21.467.354.749.417.274.08.563.08.837 0 .262-.09.497-.25.683-.463.191-.23.323-.507.383-.806a1.825 1.825 0 0 0-.07-1.104l.004.012-1.253-.331zm3.096-3.595-1.274 1.777.547 1.023-.251.354-2.023-3.857.235-.337 4.118.926-.257.354-1.094-.24zm-.361-.091-2.187-.514 1.094 2.051L5.287 8.48zm0-3.594.328-.257 2.083 2.914L9.415 6.2l.207.291-2.04 1.594-2.297-3.2zm3.445-2.383.366-.171 1.444 3.303 1.953-.926.142.331-2.318 1.103-1.586-3.64zm7.208 1.314.082.36-2.635.646-.875-3.897 2.56-.623.076.354-2.187.531.312 1.383 1.925-.474.082.354-1.93.469.328 1.446 2.264-.549zm3.757.143-.914-1.257a2.603 2.603 0 0 1-.306 0l-1.029.034.038 1.269h-.405l-.126-4L18.409 0a1.67 1.67 0 0 1 1.159.326 1.284 1.284 0 0 1 .448.994l.002.079c0 .267-.076.516-.208.726l.003-.006a1.287 1.287 0 0 1-.625.483l-.009.003.957 1.337-.443.017zm-.383-1.88a.945.945 0 0 0 .279-.749v-.02a.957.957 0 0 0-.083-.39l.002.006a.931.931 0 0 0-.241-.326L19.269.6a1.28 1.28 0 0 0-.863-.234h.005l-1.04.04.066 2 1.017-.034.046.001c.31 0 .594-.11.815-.294l-.002.002zm3.276.817-.197 1.366-.399-.063.202-1.343L21.064 0l.426.069.967 2.434 1.64-2.017.383.086-1.891 2.326zm5.408-.24.476.646-.208.171-.475-.663-.301.749-.23-.103.306-.749-.787.109v-.274l.777-.091-.482-.646.213-.171.421.651.295-.754.235.103-.279.766.788-.114v.28l-.75.091zm1.827 4.606a1.6 1.6 0 0 1-.234-.684l-.001-.007.322-.149c.025.226.095.445.208.64.122.219.281.413.47.571.194.195.443.321.711.36.097.009.194-.006.283-.045s.169-.1.231-.178a.534.534 0 0 0 .127-.347l-.002-.044v.002a1.1 1.1 0 0 0-.134-.4l.003.005a6.105 6.105 0 0 0-.334-.509 5.053 5.053 0 0 1-.38-.601l-.014-.028a1.158 1.158 0 0 1-.142-.536v-.001a.86.86 0 0 1 .214-.571c.119-.151.276-.263.454-.326a1.04 1.04 0 0 1 .614.002l-.007-.002c.255.087.491.227.695.411.168.146.317.315.443.503.116.174.203.367.257.571l-.312.171a2.052 2.052 0 0 0-.245-.545l.005.008a2.058 2.058 0 0 0-.363-.392l-.003-.003a1.19 1.19 0 0 0-.7-.348l-.006-.001a.558.558 0 0 0-.289.051l.003-.001a.595.595 0 0 0-.227.184l-.001.002a.508.508 0 0 0-.125.391v-.002a.967.967 0 0 0 .131.406c.077.131.186.303.334.509.146.194.278.401.394.617.09.163.141.349.147.537a.86.86 0 0 1-.214.571.976.976 0 0 1-.459.326.998.998 0 0 1-.607 0 2.025 2.025 0 0 1-.702-.413l.002.002a2.606 2.606 0 0 1-.54-.695l-.007-.014zm5.502.834-.771-1.143.285-.211 1.777 2.651-.284.211-.771-1.143-2.854 2.086-.23-.349 2.849-2.103zm-1.225 4.697c.097-.345.287-.655.547-.891.243-.229.546-.395.884-.472l.013-.002a1.906 1.906 0 0 1 1.041.044l-.013-.004c.322.111.61.309.837.571.229.275.392.611.463.981l.002.014a2.306 2.306 0 0 1-.003 1.118l.003-.016a2.009 2.009 0 0 1-1.453 1.38l-.014.003a1.944 1.944 0 0 1-1.046-.05l.014.004a1.838 1.838 0 0 1-.834-.568l-.002-.003a2.171 2.171 0 0 1-.463-.975l-.002-.014a2.306 2.306 0 0 1 .032-1.137l-.004.016zm.716 1.817c.183.217.419.377.683.463.273.083.56.093.838.029.292-.069.544-.207.75-.395l-.001.001c.202-.194.35-.44.431-.714a1.885 1.885 0 0 0 .019-.899l.002.013a1.868 1.868 0 0 0-.38-.798l.003.003a1.554 1.554 0 0 0-.694-.46l-.011-.003a1.552 1.552 0 0 0-.853.003l.011-.003a1.49 1.49 0 0 0-.744.395 1.6 1.6 0 0 0-.429.709l-.003.011a1.767 1.767 0 0 0 .002.898l-.003-.012c.06.283.19.546.377.76zm-1.132 4.818 1.416-.571c0-.103.033-.206.061-.314l.268-1.034-1.16-.314.104-.406 3.697 1.034-.371 1.446a1.828 1.828 0 0 1-.631 1.06l-.003.003a1.139 1.139 0 0 1-1.039.16 1.187 1.187 0 0 1-.669-.429l-.002-.003a1.27 1.27 0 0 1-.265-.774l-1.509.571.104-.429zm1.832.16c.064.121.151.228.255.314a.961.961 0 0 0 .608.218.937.937 0 0 0 .513-.152l-.004.002c.241-.203.406-.488.465-.806l.263-1.029-1.854-.52-.262 1.029a1.421 1.421 0 0 0 .019.953l-.003-.01zm-3.795 3.52-.279-.223 1.64-2.257 3.052 2.417-1.586 2.189-.279-.223 1.339-1.846-1.094-.863-1.198 1.651-.273-.217 1.225-1.651-1.132-.897-1.417 1.92zm-1.28 4.554-.782.046v-.274l.782-.006-.421-.68.214-.143.415.686.339-.766.235.131-.371.72.782-.046v.28h-.793l.421.68-.213.143-.416-.686-.361.743-.23-.137.399-.691zm-7.109-.457.662.383c.111-.223.266-.418.454-.574s.406-.268.64-.329c.217-.071.446-.096.672-.074.197.015.386.087.547.206a.893.893 0 0 1 .306.457c.066.226.054.469-.033.686a2.854 2.854 0 0 1-.547.794c.18.101.347.226.497.371a1 1 0 0 1 .225.394.788.788 0 0 1-.144.67l.001-.002a1.054 1.054 0 0 1-.605.438l-.007.002a.918.918 0 0 1-.684-.002l.006.002a.695.695 0 0 1-.25-.193l-.001-.001a.726.726 0 0 1-.142-.286l-.001-.005a.81.81 0 0 1 .039-.571c.132-.27.294-.502.487-.704l-.001.001-1.318-.766a2.87 2.87 0 0 0-.033.817h-.333a2.83 2.83 0 0 1 .115-1.014l-.005.02-.689-.4.142-.32zm.951.571 1.449.84c.19-.19.347-.411.465-.657a.756.756 0 0 0 0-.514.625.625 0 0 0-.14-.266l.001.001a.585.585 0 0 0-.239-.162l-.004-.001a1.054 1.054 0 0 0-.707.002l.007-.002a1.287 1.287 0 0 0-.506.273 1.374 1.374 0 0 0-.344.462l-.003.009.022.017zm2.057 2.286a.526.526 0 0 0 .043-.427l.001.004a.711.711 0 0 0-.175-.297 2.27 2.27 0 0 0-.454-.314 2.947 2.947 0 0 0-.432.571.58.58 0 0 0-.043.427l-.001-.004a.466.466 0 0 0 .238.301l.003.001a.586.586 0 0 0 .432 0 .657.657 0 0 0 .365-.266l.002-.002.022.006zm-9.675 1.548.077-4h.389l-.061 3.2 1.553-2.663h.191l1.455 2.709.054-3.183h.389l-.071 4h-.334L18.7 28.685l-1.701 2.931-.334-.006zm-1.903-4.182c.25.249.429.566.517.915s.081.717-.019 1.063c-.094.365-.275.68-.52.932a1.811 1.811 0 0 1-.868.5l-.012.003a2.003 2.003 0 0 1-1.075-.039l.014.004a2.04 2.04 0 0 1-.919-.52 1.942 1.942 0 0 1-.506-.889l-.003-.013a2.213 2.213 0 0 1 .021-1.097l-.004.015c.1-.364.284-.678.53-.93.23-.241.522-.42.851-.511l.013-.003a2.014 2.014 0 0 1 1.069.038l-.014-.004c.364.099.676.286.924.537zm-1.865-.2c-.28.07-.52.215-.705.411l-.001.001a1.667 1.667 0 0 0-.413.748l-.002.012a1.704 1.704 0 0 0 0 .874c.065.278.203.531.399.731.206.21.46.362.738.44.278.074.569.074.847 0 .267-.069.513-.211.711-.411.2-.21.344-.473.415-.76a1.697 1.697 0 0 0-.003-.892l.003.012a1.632 1.632 0 0 0-.405-.732l.001.001a1.626 1.626 0 0 0-.732-.432l-.011-.003a1.54 1.54 0 0 0-.853.002l.011-.003zm-4.14-2.658.147 1.571c.094.042.185.09.274.143l.891.537.602-1.109.355.211-1.914 3.446-1.247-.749a1.8 1.8 0 0 1-.816-.902l-.004-.012a1.302 1.302 0 0 1 .124-1.092l-.003.006c.127-.25.329-.451.574-.571.249-.108.526-.13.787-.063l-.158-1.68.389.263zm-.623 1.806a.954.954 0 0 0-.357.179l.002-.002a1.062 1.062 0 0 0-.35 1.117l-.002-.008c.129.296.351.536.629.68l.88.531.958-1.714-.881-.531a1.3 1.3 0 0 0-.883-.28h.003v.029zm-2.614-4.486.246-.257 1.887 2.029-2.734 2.789-1.821-1.966.251-.257 1.548 1.663.935-.989-1.356-1.474.262-.263 1.383 1.486 1.017-1.034-1.618-1.726zm-4.064-2.245.131-.789.257.04-.147.811.727-.28.087.251-.738.263.607.537-.175.206-.585-.571-.137.811-.262-.051.153-.811-.733.274-.082-.223.733-.269-.608-.531.181-.206.591.537z"/></symbol></defs></svg>